<svg fill="#FFFFFF" xmlns="http://www.w3.org/2000/svg"  viewBox="0 0 64 64" width="48px" height="48px"><path d="M47.191 40.328L35.076 52H17.055c-3.167 0-5.413-3.161-4.31-6.135 2.601-7.011 10.23-11.723 18.985-11.723C37.902 34.143 43.505 36.49 47.191 40.328zM38.569 55.997c-.335.131-.713-.247-.568-.582l1.31-2.882 11.887-11.901 2.241 2.227L41.553 54.746 38.569 55.997zM54.486 41.796l-2.218-2.233 1.128-1.114c.539-.539 1.368-.611 1.863-.116l.378.393c.553.553.509 1.354-.044 1.936L54.486 41.796zM32 31c-5.514 0-10-4.71-10-10.5S26.486 10 32 10s10 4.71 10 10.5S37.514 31 32 31z"/></svg>