<?xml version="1.0"?><svg fill="#FFFFFF" xmlns="http://www.w3.org/2000/svg"  viewBox="0 0 30 30" width="50px" height="50px">    <path d="M 10 5 C 8.895 5 8 5.895 8 7 L 8 23 C 8 24.105 8.895 25 10 25 L 20 25 C 21.105 25 22 24.105 22 23 L 22 7 C 22 5.895 21.105 5 20 5 L 10 5 z M 3 7 C 1.895 7 1 7.895 1 9 L 1 21 C 1 22.105 1.895 23 3 23 L 6 23 L 6 20 L 3 20 C 3 17.062 5.579 17.895813 6 16.632812 L 6 15.789062 C 6 15.789062 5.2152031 15.050875 5.1582031 14.546875 C 5.1582031 14.546875 4.75 14.393813 4.75 13.757812 C 4.75 13.429813 4.90625 13.353516 4.90625 13.353516 C 4.90625 13.353516 4.5625 12.876672 4.5625 12.263672 C 4.5625 11.197672 5.1549531 10.481828 6.0019531 10.173828 L 6.0019531 7 L 3 7 z M 24 7 L 24 10.5 C 24.862 10.5 25.375 11.286594 25.375 12.308594 C 25.375 12.818594 25.09375 13.353516 25.09375 13.353516 C 25.09375 13.353516 25.25 13.406812 25.25 13.757812 C 25.25 14.263813 24.841797 14.546875 24.841797 14.546875 C 24.784797 15.051875 24 15.789063 24 15.789062 L 24 16.630859 C 24.421 17.893859 27 17.051047 27 19.998047 L 24 19.998047 L 24 22.998047 L 27 22.998047 C 28.105 22.998047 29 22.103047 29 20.998047 L 29 9 C 29 7.895 28.105 7 27 7 L 24 7 z M 15 10 C 15.634 10 16 10.5 16 10.5 C 16.862 10.5 17.375 11.286594 17.375 12.308594 C 17.375 12.818594 17.09375 13.353516 17.09375 13.353516 C 17.09375 13.353516 17.25 13.406812 17.25 13.757812 C 17.25 14.263813 16.841797 14.546875 16.841797 14.546875 C 16.784797 15.051875 16 15.789063 16 15.789062 L 16 16.630859 C 16.421 17.893859 19 17.051047 19 19.998047 L 11 19.998047 C 11.001235 17.062557 13.579101 17.89551 14 16.632812 L 14 15.789062 C 14 15.789062 13.215203 15.050875 13.158203 14.546875 C 13.158203 14.546875 12.75 14.393813 12.75 13.757812 C 12.75 13.429813 12.90625 13.353516 12.90625 13.353516 C 12.90625 13.353516 12.5625 12.876672 12.5625 12.263672 C 12.5615 10.811672 13.654 10 15 10 z"/></svg>