<svg fill="#FFFFFF" xmlns="http://www.w3.org/2000/svg"  viewBox="0 0 50 50" width="50px" height="50px"><path d="M 9.8125 4 C 9.609375 4.035156 9.425781 4.136719 9.28125 4.28125 L 5.4375 8.15625 C 5.382813 8.191406 5.328125 8.234375 5.28125 8.28125 C 5.257813 8.300781 5.238281 8.320313 5.21875 8.34375 C 5.195313 8.375 5.175781 8.40625 5.15625 8.4375 C 5.117188 8.496094 5.085938 8.558594 5.0625 8.625 C 5.027344 8.714844 5.007813 8.808594 5 8.90625 C 4.992188 8.980469 4.992188 9.050781 5 9.125 C 5 9.15625 5 9.1875 5 9.21875 L 5 45 C 5 45.550781 5.449219 46 6 46 L 44 46 C 44.550781 46 45 45.550781 45 45 L 45 9.15625 C 45.003906 9.105469 45.003906 9.050781 45 9 C 45 8.988281 45 8.980469 45 8.96875 C 45 8.949219 45 8.925781 45 8.90625 C 45 8.886719 45 8.863281 45 8.84375 C 44.992188 8.800781 44.980469 8.757813 44.96875 8.71875 C 44.953125 8.664063 44.929688 8.613281 44.90625 8.5625 C 44.894531 8.550781 44.886719 8.542969 44.875 8.53125 C 44.839844 8.464844 44.796875 8.402344 44.75 8.34375 C 44.75 8.332031 44.75 8.324219 44.75 8.3125 C 44.738281 8.300781 44.730469 8.292969 44.71875 8.28125 L 44.6875 8.28125 C 44.667969 8.257813 44.648438 8.238281 44.625 8.21875 L 40.71875 4.28125 C 40.527344 4.09375 40.265625 3.992188 40 4 L 10 4 C 9.96875 4 9.9375 4 9.90625 4 C 9.875 4 9.84375 4 9.8125 4 Z M 10.4375 6 L 39.5625 6 L 41.5625 8 L 30 8 C 29.449219 8 29 8.449219 29 9 C 29 11.277344 27.277344 13 25 13 C 22.722656 13 21 11.277344 21 9 C 21 8.449219 20.550781 8 20 8 L 8.4375 8 Z M 7 10 L 19.1875 10 C 19.675781 12.828125 22.03125 15 25 15 C 27.96875 15 30.324219 12.828125 30.8125 10 L 43 10 L 43 44 L 7 44 Z M 25 19 C 19.488281 19 15 23.488281 15 29 C 15 34.511719 19.488281 39 25 39 C 30.511719 39 35 34.511719 35 29 C 35 23.488281 30.511719 19 25 19 Z M 25 21 C 29.429688 21 33 24.570313 33 29 C 33 33.429688 29.429688 37 25 37 C 20.570313 37 17 33.429688 17 29 C 17 24.570313 20.570313 21 25 21 Z M 24 23 L 24 28.5 L 20.40625 31.1875 L 21.59375 32.8125 L 25.59375 29.8125 L 26 29.5 L 26 23 Z"/></svg>