<svg xmlns="http://www.w3.org/2000/svg" xmlns:xlink="http://www.w3.org/1999/xlink" viewBox="0,0,255.99431,255.99431" width="48px" height="48px" fill-rule="nonzero"><g fill="#ffffff" fill-rule="nonzero" stroke="none" stroke-width="1" stroke-linecap="butt" stroke-linejoin="miter" stroke-miterlimit="10" stroke-dasharray="" stroke-dashoffset="0" font-family="none" font-weight="none" font-size="none" text-anchor="none" style="mix-blend-mode: normal"><g transform="scale(10.66667,10.66667)"><path d="M17.44336,0.01172c-0.429,0 -0.45772,-0.00005 -0.88672,0.00195l-0.59375,1.45703l-0.48437,0.48438l-1.45703,0.59375v0.88672l1.45703,0.59375l0.48438,0.48633l0.59375,1.45508h0.88672l0.59375,-1.45508l0.48633,-0.48633l1.45508,-0.5957v-0.88672l-1.45703,-0.59375l-0.48437,-0.48437zM8,2v20h2v-20zM21.75195,4.00391l-0.31836,0.76563c-0.123,0.297 -0.35925,0.53325 -0.65625,0.65625l-0.76562,0.31641v0.49805l0.76563,0.31836c0.297,0.123 0.53325,0.35925 0.65625,0.65625l0.31836,0.76563h0.49609l0.31836,-0.76562c0.123,-0.297 0.35925,-0.53325 0.65625,-0.65625l0.76563,-0.31836v-0.49805l-0.76562,-0.31641c-0.297,-0.123 -0.53325,-0.35925 -0.65625,-0.65625l-0.31836,-0.76562zM5,6v12h2v-12zM11,6v12h2v-12zM2,9v6h2v-6zM14,9v6h2v-6zM17,9v9h2v-9zM20,11v11h2v-11z"></path></g></g></svg>