<svg xmlns="http://www.w3.org/2000/svg" xmlns:xlink="http://www.w3.org/1999/xlink" viewBox="0,0,255.99431,255.99431" width="48px" height="48px" fill-rule="nonzero"><g fill="#ffffff" fill-rule="nonzero" stroke="none" stroke-width="1" stroke-linecap="butt" stroke-linejoin="miter" stroke-miterlimit="10" stroke-dasharray="" stroke-dashoffset="0" font-family="none" font-weight="none" font-size="none" text-anchor="none" style="mix-blend-mode: normal"><g transform="scale(4,4)"><path d="M51,13c1.104,0 2,0.896 2,2v37c0,1.104 -0.896,2 -2,2h-8c-1.104,0 -2,-0.896 -2,-2v-37c0,-1.104 0.896,-2 2,-2zM36,28c1.104,0 2,0.896 2,2v22c0,1.104 -0.896,2 -2,2h-8c-1.104,0 -2,-0.896 -2,-2v-22c0,-1.104 0.896,-2 2,-2zM21,23c1.104,0 2,0.896 2,2v27c0,1.104 -0.896,2 -2,2h-8c-1.104,0 -2,-0.896 -2,-2v-27c0,-1.104 0.896,-2 2,-2z"></path></g></g></svg>