<svg fill="#FFFFFF" xmlns="http://www.w3.org/2000/svg"  viewBox="0 0 50 50" width="50px" height="50px"><path d="M 5 4 C 4.449219 4 4 4.449219 4 5 L 4 45 C 4 45.550781 4.449219 46 5 46 L 45 46 C 45.550781 46 46 45.550781 46 45 L 46 5 C 46 4.449219 45.550781 4 45 4 Z M 6 6 L 44 6 L 44 44 L 6 44 Z M 14 11 C 12.355469 11 11 12.355469 11 14 C 11 15.644531 12.355469 17 14 17 C 15.644531 17 17 15.644531 17 14 C 17 12.355469 15.644531 11 14 11 Z M 14 13 C 14.5625 13 15 13.4375 15 14 C 15 14.5625 14.5625 15 14 15 C 13.4375 15 13 14.5625 13 14 C 13 13.4375 13.4375 13 14 13 Z M 21 13 C 20.640625 12.996094 20.304688 13.183594 20.121094 13.496094 C 19.941406 13.808594 19.941406 14.191406 20.121094 14.503906 C 20.304688 14.816406 20.640625 15.003906 21 15 L 38 15 C 38.359375 15.003906 38.695313 14.816406 38.878906 14.503906 C 39.058594 14.191406 39.058594 13.808594 38.878906 13.496094 C 38.695313 13.183594 38.359375 12.996094 38 13 Z M 14 22 C 12.355469 22 11 23.355469 11 25 C 11 26.644531 12.355469 28 14 28 C 15.644531 28 17 26.644531 17 25 C 17 23.355469 15.644531 22 14 22 Z M 14 24 C 14.5625 24 15 24.4375 15 25 C 15 25.5625 14.5625 26 14 26 C 13.4375 26 13 25.5625 13 25 C 13 24.4375 13.4375 24 14 24 Z M 21 24 C 20.640625 23.996094 20.304688 24.183594 20.121094 24.496094 C 19.941406 24.808594 19.941406 25.191406 20.121094 25.503906 C 20.304688 25.816406 20.640625 26.003906 21 26 L 38 26 C 38.359375 26.003906 38.695313 25.816406 38.878906 25.503906 C 39.058594 25.191406 39.058594 24.808594 38.878906 24.496094 C 38.695313 24.183594 38.359375 23.996094 38 24 Z M 14 33 C 12.355469 33 11 34.355469 11 36 C 11 37.644531 12.355469 39 14 39 C 15.644531 39 17 37.644531 17 36 C 17 34.355469 15.644531 33 14 33 Z M 14 35 C 14.5625 35 15 35.4375 15 36 C 15 36.5625 14.5625 37 14 37 C 13.4375 37 13 36.5625 13 36 C 13 35.4375 13.4375 35 14 35 Z M 21 35 C 20.640625 34.996094 20.304688 35.183594 20.121094 35.496094 C 19.941406 35.808594 19.941406 36.191406 20.121094 36.503906 C 20.304688 36.816406 20.640625 37.003906 21 37 L 38 37 C 38.359375 37.003906 38.695313 36.816406 38.878906 36.503906 C 39.058594 36.191406 39.058594 35.808594 38.878906 35.496094 C 38.695313 35.183594 38.359375 34.996094 38 35 Z"/></svg>