<svg xmlns="http://www.w3.org/2000/svg" xmlns:xlink="http://www.w3.org/1999/xlink" viewBox="0,0,255.99431,255.99431" width="48px" height="48px" fill-rule="nonzero"><g fill="#ffffff" fill-rule="nonzero" stroke="none" stroke-width="1" stroke-linecap="butt" stroke-linejoin="miter" stroke-miterlimit="10" stroke-dasharray="" stroke-dashoffset="0" font-family="none" font-weight="none" font-size="none" text-anchor="none" style="mix-blend-mode: normal"><g transform="scale(5.33333,5.33333)"><path d="M24,2c-4.95272,0 -9,4.04728 -9,9v15c0,4.95272 4.04728,9 9,9c4.95272,0 9,-4.04728 9,-9v-15c0,-4.95272 -4.04728,-9 -9,-9zM24,5c3.33128,0 6,2.66872 6,6v15c0,3.33128 -2.66872,6 -6,6c-3.33128,0 -6,-2.66872 -6,-6v-15c0,-3.33128 2.66872,-6 6,-6zM10.47656,20.97852c-0.82766,0.01293 -1.48843,0.69381 -1.47656,1.52148v3.5c0,7.76051 5.93404,14.16812 13.5,14.92383v4.57617c-0.00765,0.54095 0.27656,1.04412 0.74381,1.31683c0.46725,0.27271 1.04514,0.27271 1.51238,0c0.46725,-0.27271 0.75146,-0.77588 0.74381,-1.31683v-4.57617c7.56596,-0.75571 13.5,-7.16332 13.5,-14.92383v-3.5c0.00765,-0.54095 -0.27656,-1.04412 -0.74381,-1.31683c-0.46725,-0.27271 -1.04514,-0.27271 -1.51238,0c-0.46725,0.27271 -0.75146,0.77588 -0.74381,1.31683v3.5c0,6.58537 -5.26032,11.89473 -11.82227,11.99023c-0.06672,-0.00841 -0.13393,-0.01233 -0.20117,-0.01172c-0.05486,0.0009 -0.10963,0.00481 -0.16406,0.01172c-6.55737,-0.10066 -11.8125,-5.40815 -11.8125,-11.99023v-3.5c0.00582,-0.40562 -0.15288,-0.7963 -0.43991,-1.08296c-0.28703,-0.28666 -0.67792,-0.44486 -1.08353,-0.43852z"></path></g></g></svg>