<svg fill="#FFFFFF" xmlns="http://www.w3.org/2000/svg"  viewBox="0 0 50 50" width="50px" height="50px"><path d="M 0.8125 17 C 0.335938 17.089844 -0.0078125 17.511719 0 18 L 0 24 C 0 24.417969 0.261719 24.792969 0.65625 24.9375 L 8 27.6875 L 8 39 C 8 39.554688 8.449219 40 9 40 L 32 40 C 32.324219 40 32.625 39.832031 32.8125 39.5625 L 46.53125 20 L 49 20 C 49.554688 20 50 19.550781 50 19 C 50 18.449219 49.554688 18 49 18 L 45 18 C 44.8125 18 44.625 18.058594 44.46875 18.15625 L 33 25.21875 L 33 24 C 33 23.449219 32.554688 23 32 23 L 22 23 L 22 21 L 25 21 C 25.550781 21 26 20.550781 26 20 L 26 18 C 26 17.449219 25.550781 17 25 17 L 17 17 C 16.449219 17 16 17.449219 16 18 L 16 20 C 16 20.550781 16.449219 21 17 21 L 20 21 L 20 23 L 9.625 23 L 7.90625 19.5625 C 7.785156 19.324219 7.570313 19.140625 7.3125 19.0625 L 1.3125 17.0625 C 1.183594 17.015625 1.042969 16.992188 0.90625 17 C 0.875 17 0.84375 17 0.8125 17 Z M 2 19.375 L 6.28125 20.8125 L 8 24.25 L 8 25.5625 L 2 23.3125 Z M 48 27 C 48 27 46 30.894531 46 32 C 46 33.105469 46.894531 34 48 34 C 49.105469 34 50 33.105469 50 32 C 50 30.894531 48 27 48 27 Z"/></svg>