<svg fill="#FFFFFF" xmlns="http://www.w3.org/2000/svg"  viewBox="0 0 64 64" width="50px" height="50px"><path d="M 45.78125 9.0273438 C 42.580742 9.1254004 38.483906 10.304531 36.144531 12.644531 C 32.59791 16.190367 32.087249 21.075648 34.478516 25.464844 C 33.752432 26.144256 32.001597 27.689795 29.607422 29.779297 L 19 19.171875 L 19 17.205078 C 19 16.642078 18.728531 16.113156 18.269531 15.785156 L 13.339844 12.265625 C 12.773844 11.861625 11.999812 11.925969 11.507812 12.417969 L 9.4179688 14.507812 C 8.9259688 14.999813 8.861625 15.773844 9.265625 16.339844 L 12.785156 21.269531 C 13.113156 21.728531 13.641078 22 14.205078 22 L 16.171875 22 L 26.585938 32.414062 C 20.670778 37.559583 13.787536 43.523011 12.796875 44.513672 C 10.400875 46.909672 10.400875 50.807125 12.796875 53.203125 C 13.994875 54.400125 15.569578 55 17.142578 55 C 18.716578 55 20.290281 54.401125 21.488281 53.203125 C 22.90436 51.787046 38.229574 33.998906 40.533203 31.523438 C 42.320135 32.497213 44.189025 32.998047 46.017578 32.998047 C 48.679578 32.998047 51.253469 31.959422 53.355469 29.857422 C 57.099469 26.113422 57.856 17.856 56 16 C 55.303 15.303 54.49 15.51 54 16 L 46.818359 23.087891 C 46.104359 23.022891 45.108031 22.693969 44.207031 21.792969 C 43.306031 20.891969 42.977109 19.894641 42.912109 19.181641 L 50 12 C 50.731 11.269 50.501 10.501 50 10 C 49.299125 9.299125 47.701555 8.9685098 45.78125 9.0273438 z M 40.875 36.882812 L 33.470703 45.652344 L 40.917969 53.097656 C 42.143969 54.324656 43.773813 55 45.507812 55 C 47.241813 55 48.872609 54.324656 50.099609 53.097656 C 52.630609 50.566656 52.630609 46.449969 50.099609 43.917969 L 43.476562 37.296875 L 40.875 36.882812 z"/></svg>