<svg fill="#FFFFFF" xmlns="http://www.w3.org/2000/svg"  viewBox="0 0 50 50" width="50px" height="50px"><path d="M 14.5 7 C 10.816406 7 7.496094 10.039063 5.0625 13.03125 C 5.164063 13.023438 5.273438 13 5.375 13 L 19 13 L 19 7 Z M 21 7 L 21 13 L 36.59375 13 C 36.273438 12.761719 35.96875 12.515625 35.65625 12.28125 C 32.53125 9.925781 28.636719 7 25 7 Z M 5.375 15 C 2.800781 15 0 20.210938 0 21.5625 L 0 27.15625 C 0 28.734375 1.273438 30 2.84375 30 L 7 30 L 7 29 C 7 26.238281 9.238281 24 12 24 C 14.761719 24 17 26.238281 17 29 L 17 30 L 34 30 L 34 29 C 34 26.238281 36.238281 24 39 24 C 41.761719 24 44 26.238281 44 29 L 44 30 L 47.15625 30 C 48.726563 30 50 28.734375 50 27.15625 L 50 23.4375 C 50 20.796875 47.4375 15 39.78125 15 Z M 12 38 C 8.691406 38 6 40.691406 6 44 C 6 47.308594 8.691406 50 12 50 C 14.980469 50 17.445313 47.824219 17.90625 44.96875 L 22.1875 44.96875 C 22.59375 46.140625 23.6875 47 25 47 C 26.3125 47 27.40625 46.140625 27.8125 44.96875 L 33.09375 44.96875 C 33.554688 47.824219 36.019531 50 39 50 C 42.308594 50 45 47.308594 45 44 C 45 40.691406 42.308594 38 39 38 C 36.019531 38 33.554688 40.175781 33.09375 43.03125 L 27.8125 43.03125 C 27.40625 41.859375 26.3125 41 25 41 C 23.6875 41 22.59375 41.859375 22.1875 43.03125 L 17.90625 43.03125 C 17.445313 40.175781 14.980469 38 12 38 Z"/></svg>